HIERARCHY
ROOT root
{
	OFFSET	0	13.1	24.9
	CHANNELS 6  Xposition Yposition Zposition Xrotation Yrotation Zrotation
	JOINT spine_1
	{
		OFFSET	0	9.99999	0
		CHANNELS 3  Xrotation Yrotation Zrotation
		JOINT spine_2
		{
			OFFSET	0	112	-10
			CHANNELS 3  Xrotation Yrotation Zrotation
			JOINT spine_3
			{
				OFFSET	0	206.5	19.3
				CHANNELS 3  Xrotation Yrotation Zrotation
				JOINT spine_4
				{
					OFFSET	0	110.4	14.6
					CHANNELS 3  Xrotation Yrotation Zrotation
					JOINT neck_1
					{
						OFFSET	0	71.8	-50.3
						CHANNELS 3  Xrotation Yrotation Zrotation
						JOINT neck_2
						{
							OFFSET	0	86.2	-25.8
							CHANNELS 3  Xrotation Yrotation Zrotation
							JOINT head_ee
							{
								OFFSET	0	179.8	-8.7
								CHANNELS 3  Xrotation Yrotation Zrotation
								End Site
								{
									OFFSET	1	0	0
								}
							}
						}
					}
					JOINT left_clavicle
					{
						OFFSET	-43.2	22.4	-70.8
						CHANNELS 3  Xrotation Yrotation Zrotation
						JOINT left_shoulder
						{
							OFFSET	-93.9	-5.79999	48.7
							CHANNELS 3  Xrotation Yrotation Zrotation
							JOINT left_elbow
							{
								OFFSET	-291.4	-30.8	15.2
								CHANNELS 3  Xrotation Yrotation Zrotation
								JOINT left_lowarm_twist
								{
									OFFSET	-110.7	-3.89999	13.6
									CHANNELS 3  Xrotation Yrotation Zrotation
									JOINT left_hand
									{
										OFFSET	-110.7	-3.89999	13.6
										CHANNELS 3  Xrotation Yrotation Zrotation
										JOINT left_ee
										{
											OFFSET	-80.8	-5.10001	12.1
											CHANNELS 3  Xrotation Yrotation Zrotation
											End Site
											{
												OFFSET	1	0	0
											}
										}
									}
								}
							}
						}
					}
					JOINT right_clavicle
					{
						OFFSET	43.2	22.4	-70.8
						CHANNELS 3  Xrotation Yrotation Zrotation
						JOINT right_shoulder
						{
							OFFSET	93.9	-5.79999	48.7
							CHANNELS 3  Xrotation Yrotation Zrotation
							JOINT right_elbow
							{
								OFFSET	291.4	-30.8	15.2
								CHANNELS 3  Xrotation Yrotation Zrotation
								JOINT right_lowarm_twist
								{
									OFFSET	110.7	-3.89999	13.6
									CHANNELS 3  Xrotation Yrotation Zrotation
									JOINT right_hand
									{
										OFFSET	110.7	-3.89999	13.6
										CHANNELS 3  Xrotation Yrotation Zrotation
										JOINT right_ee
										{
											OFFSET	80.8	-5.10001	12.1
											CHANNELS 3  Xrotation Yrotation Zrotation
											End Site
											{
												OFFSET	1	0	0
											}
										}
									}
								}
							}
						}
					}
				}
			}
		}
	}
	JOINT left_hip
	{
		OFFSET	-82.8	-127.5	0.300001
		CHANNELS 3  Xrotation Yrotation Zrotation
		JOINT left_knee
		{
			OFFSET	-28.2	-396.7	2.2
			CHANNELS 3  Xrotation Yrotation Zrotation
			JOINT left_ankle
			{
				OFFSET	-11.7	-411.3	35.4
				CHANNELS 3  Xrotation Yrotation Zrotation
				JOINT left_toes
				{
					OFFSET	0	-60	-88.6
					CHANNELS 3  Xrotation Yrotation Zrotation
					JOINT left_foot_ee
					{
						OFFSET	-22.5	-16.5	-42.2
						CHANNELS 3  Xrotation Yrotation Zrotation
						End Site
						{
							OFFSET	1	0	0
						}
					}
				}
			}
		}
	}
	JOINT right_hip
	{
		OFFSET	82.8	-127.5	0.300001
		CHANNELS 3  Xrotation Yrotation Zrotation
		JOINT right_knee
		{
			OFFSET	28.2	-396.7	2.2
			CHANNELS 3  Xrotation Yrotation Zrotation
			JOINT right_ankle
			{
				OFFSET	11.7	-411.3	35.4
				CHANNELS 3  Xrotation Yrotation Zrotation
				JOINT right_toes
				{
					OFFSET	0	-60	-88.6
					CHANNELS 3  Xrotation Yrotation Zrotation
					JOINT right_foot_ee
					{
						OFFSET	22.5	-16.5	-42.2
						CHANNELS 3  Xrotation Yrotation Zrotation
						End Site
						{
							OFFSET	1	0	0
						}
					}
				}
			}
		}
	}
}
MOTION
Frames: 12
Frame Time: 0.02
1748.55 695.61 -1477.73 1.92734 77.752 0.815392 -0.585371 0.110104 -0.223901 -0.585352 0.124128 -0.216441 -0.585826 0.168735 -0.183801 -0.585847 0.13759 -0.208143 -10.3338 11.6188 -1.32085 -10.5197 22.7901 1.74079 -0.0 0.0 -0.0 4.17134 22.3441 8.4684 14.5182 -32.0627 72.5542 1.8934 -43.1613 0.748968 -37.1978 -2.65819 3.85222 2.25121 -3.89177 13.6343 -0.0 0.0 -0.0 10.9841 -9.21729 -20.8177 -21.7687 14.2327 -57.9983 0.188734 5.34138 -0.00880374 -79.4555 7.75271 -5.28674 -11.4224 -28.8961 69.4337 0.0 0.0 0.0 -5.82458 16.1886 -5.98878 7.31716 -0.369679 -1.06077 20.5349 -26.1878 -3.34216 -5.13676 0.0 0.0 -0.0 0.0 -0.0 8.69927 -7.20778 -2.5251 -11.7715 -0.302934 -1.77795 15.1502 17.0016 2.32116 -0.985547 0.0 0.0 0.0 0.0 0.0 
1742.79 694.045 -1483.63 0.139085 78.6752 2.26733 -0.512924 0.0804076 -0.23522 -0.512898 0.0952122 -0.229626 -0.513278 0.143175 -0.203211 -0.513319 0.109284 -0.223272 -9.79005 11.4466 -1.23167 -9.93758 22.3712 1.6684 -0.0 0.0 -0.0 3.89834 22.8051 8.07876 13.1522 -33.1772 73.152 1.96375 -44.2048 0.797557 -37.8263 -2.72301 3.90021 2.26609 -3.59229 13.862 -0.0 0.0 -0.0 11.264 -8.9446 -21.3941 -21.3344 13.3986 -58.121 0.183611 5.19719 -0.00833314 -80.0876 7.83295 -5.27855 -11.4022 -28.8044 69.3659 0.0 0.0 0.0 -5.65222 15.9283 -6.05122 7.1774 -0.361355 -1.04097 22.6901 -25.3937 -3.61434 -4.43037 0.0 0.0 -0.0 0.0 -0.0 8.40327 -8.19661 -2.49151 -12.5674 -0.310145 -1.89986 17.3135 14.1887 2.57129 -0.795681 0.0 0.0 0.0 0.0 0.0 
1735.62 693.623 -1490.7 -1.8128 79.0902 3.94645 -0.513963 0.172467 -0.327261 -0.513924 0.192942 -0.315624 -0.515001 0.257371 -0.265717 -0.515037 0.212176 -0.303029 -8.83751 11.3142 0.796321 -8.92338 20.661 3.43022 -0.0 0.0 -0.0 3.29354 22.523 7.22481 11.8554 -33.99 73.4119 1.95841 -44.1269 0.793838 -37.8333 -2.72374 3.90074 2.16615 -4.76668 12.6798 -0.0 0.0 -0.0 11.4891 -8.46128 -21.8977 -20.5158 13.3417 -58.6228 0.18471 5.22813 -0.00843311 -81.041 7.95375 -5.26451 -11.3235 -28.3217 69.5886 0.0 0.0 0.0 -5.61454 15.3864 -6.18699 6.464 -0.319618 -0.939583 22.5821 -24.2142 -3.55426 -4.66394 0.0 0.0 -0.0 0.0 -0.0 8.18297 -8.53007 -2.45711 -13.4751 -0.3163 -2.039 19.4146 10.4364 2.78805 1.2346 -0.0 -0.0 0.0 0.0 0.0 
1724.25 690.528 -1499.32 -5.30048 81.1929 6.9565 -0.545336 0.130996 -0.304521 -0.545297 0.150108 -0.295568 -0.546075 0.211322 -0.255414 -0.546127 0.168332 -0.285582 -6.65321 11.6762 1.78682 -6.63561 20.381 4.10837 -0.0 0.0 -0.0 2.65243 22.968 6.33683 11.0774 -35.7739 74.2649 1.95134 -44.0233 0.788919 -39.0858 -2.85447 3.99423 2.26389 -4.0515 13.6556 -0.0 0.0 -0.0 11.6975 -7.83901 -22.392 -19.8472 12.1779 -58.1951 0.180955 5.12242 -0.00809435 -81.7679 8.04566 -5.25245 -11.1359 -27.2841 69.5562 0.0 0.0 0.0 -5.36189 14.8662 -6.62292 6.16803 -0.302675 -0.897371 25.0694 -26.4708 -3.98245 -4.96585 0.0 0.0 -0.0 0.0 -0.0 7.89579 -10.2627 -2.18087 -14.0967 -0.319243 -2.13432 23.3555 7.69051 3.24069 0.430573 -0.0 -0.0 0.0 0.0 0.0 
1715.19 685.073 -1505.03 -9.07291 82.5594 10.4414 -0.507217 -0.0295588 -0.332493 -0.507156 -0.00834158 -0.3337 -0.50707 0.0648816 -0.327438 -0.507219 0.0123549 -0.333576 -5.83306 11.41 1.8773 -5.78278 19.7097 4.01414 -0.0 0.0 -0.0 1.94586 22.8355 5.34742 9.73107 -37.5129 74.6699 1.93766 -43.822 0.779428 -39.3267 -2.87984 4.01188 2.23605 -3.82816 13.5558 -0.0 0.0 -0.0 11.7875 -7.49642 -22.6169 -19.9029 11.7319 -58.176 0.187226 5.29895 -0.00866386 -82.4082 8.12647 -5.24084 -11.055 -26.7376 69.8719 0.0 0.0 0.0 -4.71232 14.5755 -7.06046 5.88985 -0.28695 -0.85762 26.0626 -26.4396 -4.11234 -5.2131 0.0 0.0 -0.0 0.0 -0.0 7.49405 -11.2328 -1.95385 -14.5277 -0.320677 -2.20044 25.9508 5.92447 3.52302 0.769402 -0.0 -0.0 0.0 0.0 0.0 
1708.84 677.744 -1510.48 -20.6109 84.5847 21.7985 -0.412286 0.0146782 -0.402208 -0.412197 0.0402418 -0.400459 -0.41244 0.126266 -0.382157 -0.412637 0.0643276 -0.397302 -5.06983 11.7771 3.13509 -4.98203 19.3415 5.23494 -0.0 0.0 -0.0 1.45767 21.8683 4.60265 9.08558 -38.8142 75.0503 1.92826 -43.6828 0.772927 -40.2339 -2.97607 4.0774 2.26363 -3.43727 13.9094 -0.0 0.0 -0.0 11.9515 -6.63455 -23.0598 -18.7855 10.7117 -58.6587 0.186368 5.27479 -0.00858483 -83.0374 8.20574 -5.22855 -10.9701 -26.2442 69.8607 0.0 0.0 0.0 -4.12884 14.3427 -7.15213 5.35899 -0.257479 -0.781556 27.6234 -26.2236 -4.30337 -4.84335 0.0 0.0 -0.0 0.0 -0.0 7.11672 -12.7208 -2.2178 -14.4348 -0.32041 -2.18618 29.954 4.8387 3.95513 0.952046 -0.0 -0.0 0.0 0.0 0.0 
1702.64 678.968 -1516.61 -32.1866 85.5547 32.9476 -0.326715 0.0690099 -0.36619 -0.326645 0.0921715 -0.361056 -0.327208 0.167903 -0.332665 -0.327345 0.113258 -0.355007 -5.57196 11.8355 3.60996 -5.49691 19.1785 5.79751 -0.0 0.0 -0.0 1.62207 21.0799 4.78489 7.84126 -39.5107 75.6129 1.73494 -40.6734 0.64308 -40.9696 -3.05486 4.12942 2.25583 -2.77814 14.1277 -0.0 0.0 -0.0 11.9693 -5.70143 -23.2144 -17.109 9.85858 -59.5985 0.194208 5.49536 -0.00932063 -83.3967 8.25094 -5.22114 -10.9727 -26.2463 69.9114 0.0 0.0 0.0 -3.36639 13.3381 -7.57643 4.809 -0.227693 -0.702472 26.9191 -27.6445 -4.28237 -4.60216 0.0 0.0 -0.0 0.0 -0.0 6.73326 -13.6486 -2.23139 -14.3427 -0.320123 -2.17205 30.3351 4.19053 3.98755 1.02791 -0.0 -0.0 0.0 0.0 0.0 
1693.65 676.565 -1523.79 -41.6095 86.6734 42.2565 -0.268203 0.040817 -0.481914 -0.268076 0.0713994 -0.47834 -0.268627 0.172465 -0.451845 -0.268898 0.098941 -0.473411 -4.4286 11.9151 3.82468 -4.31231 18.9676 5.86886 -0.0 0.0 -0.0 0.949046 20.1977 3.74156 6.67251 -40.3768 75.8072 1.67703 -39.715 0.605708 -41.2423 -3.08424 4.14845 2.2764 -2.71102 14.298 -0.0 0.0 -0.0 12.0818 -4.95992 -23.5354 -15.809 10.4509 -59.4592 0.195043 5.51884 -0.00940068 -84.2157 8.35374 -5.20318 -10.9417 -26.0328 70.024 0.0 0.0 0.0 -3.05573 12.2055 -7.63561 2.7875 -0.124786 -0.409478 30.0392 -26.039 -4.59301 -4.38962 0.0 0.0 -0.0 0.0 -0.0 5.5003 -13.8191 -2.64558 -14.2809 -0.319917 -2.16257 33.5975 3.80042 4.31953 0.883486 -0.0 -0.0 0.0 0.0 0.0 
1682.14 679.159 -1528.1 -90.0001 87.8282 90.0001 -0.22273 0.0555548 -0.54379 -0.22257 0.0900444 -0.539153 -0.223364 0.203336 -0.507395 -0.223703 0.120652 -0.533139 -3.59335 11.8261 3.27805 -3.45459 19.0762 5.18197 -0.0 0.0 -0.0 0.95572 20.4601 3.77356 6.17901 -40.4938 77.0437 1.41935 -35.1092 0.449028 -43.2862 -3.30723 4.28656 1.91948 0.349441 13.0733 -0.0 0.0 -0.0 12.0336 -4.27589 -23.5159 -15.2432 10.6484 -60.0994 0.196914 5.57144 -0.00958155 -84.9202 8.44195 -5.18654 -11.0483 -26.7489 69.6813 0.0 0.0 0.0 0.00772201 9.50099 -8.37593 0.782497 -0.0330121 -0.11554 29.729 -25.6514 -4.53645 -5.05725 0.0 0.0 -0.0 0.0 -0.0 4.38372 -14.8897 -3.17417 -13.8273 -0.318094 -2.093 31.6656 3.26861 4.11638 -0.741566 0.0 0.0 0.0 0.0 0.0 
1669.96 676.869 -1531.82 -132.813 86.9235 134.259 -0.152182 -0.00433452 -0.900149 -0.151733 0.0529507 -0.898601 -0.152371 0.242959 -0.866754 -0.153405 0.103028 -0.894244 -3.62936 11.2009 3.75893 -3.50458 17.5655 5.58796 -0.0 0.0 -0.0 0.95772 19.9549 3.7336 4.07274 -41.0259 77.4148 1.2548 -31.8633 0.3582 -44.5855 -3.4515 4.3702 1.88672 1.89952 13.4611 -0.0 0.0 -0.0 12.0039 -2.75023 -23.6183 -13.3723 10.976 -59.8798 0.21217 6.00007 -0.0111195 -84.9188 8.44177 -5.18657 -11.192 -27.5774 69.6472 0.0 0.0 0.0 0.970642 7.70034 -9.0055 0.27457 -0.0114034 -0.0405917 31.3773 -25.0493 -4.70214 -4.68801 0.0 0.0 -0.0 0.0 -0.0 3.72439 -14.5091 -3.47422 -14.2303 -0.319741 -2.1548 32.8762 2.85886 4.23581 -0.948556 0.0 0.0 0.0 0.0 0.0 
1663.37 676.667 -1535.12 -146.2 86.044 147.941 -0.189869 -0.0369383 -1.05067 -0.189255 0.0299897 -1.05089 -0.18952 0.253597 -1.02028 -0.190962 0.0892896 -1.04752 -3.55419 10.9489 3.78717 -3.43275 17.0691 5.57051 -0.0 0.0 -0.0 1.39488 19.4111 4.3365 1.1003 -41.2526 76.8301 1.0857 -28.2717 0.273441 -46.0561 -3.61701 4.4609 1.78415 4.21937 13.6592 -0.0 0.0 -0.0 11.8315 -0.951308 -23.4221 -12.8322 12.659 -60.0983 0.217279 6.14346 -0.01166 -85.2789 8.48677 -5.17764 -11.2627 -28.0166 69.4726 0.0 0.0 0.0 3.17723 6.84884 -9.10222 -0.918785 0.0367398 0.136211 33.8094 -22.8105 -4.86789 -4.51815 0.0 0.0 -0.0 0.0 -0.0 2.42658 -13.7906 -3.80375 -13.4312 -0.316053 -2.03227 33.9386 3.78636 4.35329 -1.86968 0.0 0.0 0.0 0.0 0.0 
1650.71 674.366 -1538.66 -153.478 84.1557 155.347 -0.153256 -0.0753789 -1.21927 -0.152429 0.00235333 -1.2216 -0.15208 0.262257 -1.19312 -0.15406 0.0705497 -1.21956 -3.2094 10.8258 4.2552 -3.07977 16.4214 5.99753 -0.0 0.0 -0.0 1.10101 20.0305 3.95036 -0.614811 -41.5927 76.777 1.03836 -27.2194 0.251399 -47.2199 -3.74962 4.52966 1.37531 7.33816 12.0888 -0.0 0.0 -0.0 11.4315 -0.508779 -22.611 -10.7495 12.7346 -60.8146 0.277116 7.81661 -0.0189323 -85.1468 8.47028 -5.18095 -11.4415 -29.046 69.241 0.0 0.0 0.0 6.35285 4.90884 -9.36047 -6.11948 0.203152 0.916744 36.9243 -19.676 -5.05174 -3.70805 0.0 0.0 -0.0 0.0 -0.0 1.51457 -14.422 -4.39465 -13.7289 -0.317627 -2.07792 35.384 4.44042 4.50304 -2.52533 0.0 0.0 0.0 0.0 0.0 
